ffmpeg version N-82167-g5e96558 Copyright (c) 2000-2016 the FFmpeg developers
  built with gcc 5.4.0 (Ubuntu 5.4.0-6ubuntu1~16.04.2) 20160609
  configuration: --prefix=/root/ffmpeg_build --pkg-config-flags=--static --extra-cflags=-I/root/ffmpeg_build/include --extra-ldflags=-L/root/ffmpeg_build/lib --bindir=/root/bin --enable-gpl --enable-libass --enable-libfdk-aac --enable-libfreetype --enable-libmp3lame --enable-libopus --enable-libtheora --enable-libvorbis --enable-libx264 --enable-libx265 --enable-nonfree
  libavutil      55. 35.100 / 55. 35.100
  libavcodec     57. 65.100 / 57. 65.100
  libavformat    57. 57.100 / 57. 57.100
  libavdevice    57.  2.100 / 57.  2.100
  libavfilter     6. 66.100 /  6. 66.100
  libswscale      4.  3.100 /  4.  3.100
  libswresample   2.  4.100 /  2.  4.100
  libpostproc    54.  2.100 / 54.  2.100
Input #0, matroska,webm, from '/media/yubikiri/bot/queue/3AnimePahe_Detective_Conan_-_036_720p_Fansub.mkv':
  Metadata:
    title           : 3|Text||0|0
    ENCODER         : Lavf57.57.100
  Duration: 00:24:12.12, start: 0.000000, bitrate: 945 kb/s
    Stream #0:0: Video: mpeg4 (Simple Profile), yuv420p, 640x480 [SAR 1:1 DAR 4:3], 23.98 fps, 23.98 tbr, 1k tbn, 23.98 tbc (default)
    Metadata:
      DURATION        : 00:24:12.119000000
    Stream #0:1: Audio: mp3, 48000 Hz, stereo, s16p, 128 kb/s (default)
    Metadata:
      DURATION        : 00:24:12.072000000
[libx264 @ 0x323cc40] using SAR=1/1
[libx264 @ 0x323cc40] using cpu capabilities: MMX2 SSE2Fast SSSE3 SSE4.2 AVX FMA3 AVX2 LZCNT BMI2
[libx264 @ 0x323cc40] profile High, level 3.1
[libx264 @ 0x323cc40] 264 - core 148 r2643 5c65704 - H.264/MPEG-4 AVC codec - Copyleft 2003-2015 - http://www.videolan.org/x264.html - options: cabac=1 ref=8 deblock=1:1:1 analyse=0x3:0x133 me=umh subme=7 psy=1 psy_rd=0.00:0.00 mixed_ref=1 me_range=8 chroma_me=1 trellis=0 8x8dct=1 cqm=0 deadzone=21,11 fast_pskip=1 chroma_qp_offset=0 threads=8 lookahead_threads=2 sliced_threads=0 nr=0 decimate=1 interlaced=0 bluray_compat=0 constrained_intra=0 bframes=3 b_pyramid=2 b_adapt=2 b_bias=0 direct=1 weightb=1 open_gop=0 weightp=2 keyint=240 keyint_min=24 scenecut=40 intra_refresh=0 rc_lookahead=60 rc=crf mbtree=1 crf=27.0 qcomp=0.60 qpmin=0 qpmax=69 qpstep=4 ip_ratio=1.40 aq=1:1.00
[libfdk_aac @ 0x31c8d80] Note, the VBR setting is unsupported and only works with some parameter combinations
Output #0, mp4, to '/media/yubikiri/bot/queue/3AnimePahe_Detective_Conan_-_036_720p_Fansub.mkv_encoded.mp4':
  Metadata:
    encoder         : Lavf57.57.100
    Stream #0:0: Video: h264 (libx264) ([33][0][0][0] / 0x0021), yuv420p, 640x480 [SAR 1:1 DAR 4:3], q=-1--1, 23.98 fps, 11988 tbn, 23.98 tbc (default)
    Metadata:
      encoder         : Lavc57.65.100 libx264
    Side data:
      cpb: bitrate max/min/avg: 0/0/0 buffer size: 0 vbv_delay: -1
    Stream #0:1: Audio: aac (libfdk_aac) (HE-AACv2) ([64][0][0][0] / 0x0040), 48000 Hz, stereo, s16, 48 kb/s (default)
    Metadata:
      encoder         : Lavc57.65.100 libfdk_aac
Stream mapping:
  Stream #0:0 -> #0:0 (mpeg4 (native) -> h264 (libx264))
  Stream #0:1 -> #0:1 (mp3 (native) -> aac (libfdk_aac))
Press [q] to stop, [?] for help
frame=  109 fps=0.0 q=32.0 size=     112kB time=00:00:04.71 bitrate= 195.3kbits/s dup=1 drop=0 speed=9.29x    frame=  167 fps=166 q=32.0 size=     283kB time=00:00:07.15 bitrate= 324.2kbits/s dup=1 drop=0 speed=7.09x    frame=  258 fps=171 q=32.0 size=     458kB time=00:00:10.94 bitrate= 342.7kbits/s dup=1 drop=0 speed=7.25x    frame=  335 fps=167 q=32.0 size=     587kB time=00:00:14.14 bitrate= 340.1kbits/s dup=1 drop=0 speed=7.04x    frame=  427 fps=170 q=32.0 size=     741kB time=00:00:17.98 bitrate= 337.6kbits/s dup=1 drop=0 speed=7.16x    frame=  497 fps=164 q=32.0 size=     907kB time=00:00:20.88 bitrate= 355.9kbits/s dup=1 drop=0 speed= 6.9x    frame=  584 fps=165 q=29.0 size=    1071kB time=00:00:24.51 bitrate= 358.0kbits/s dup=1 drop=0 speed=6.95x    frame=  718 fps=178 q=32.0 size=    1252kB time=00:00:30.10 bitrate= 340.7kbits/s dup=1 drop=0 speed=7.47x    frame=  782 fps=173 q=32.0 size=    1462kB time=00:00:32.79 bitrate= 365.1kbits/s dup=1 drop=0 speed=7.24x    frame=  887 fps=176 q=32.0 size=    1627kB time=00:00:37.14 bitrate= 358.8kbits/s dup=1 drop=0 speed=7.37x    frame=  977 fps=176 q=32.0 size=    1806kB time=00:00:40.89 bitrate= 361.6kbits/s dup=1 drop=0 speed=7.38x    frame= 1047 fps=173 q=32.0 size=    1994kB time=00:00:43.84 bitrate= 372.5kbits/s dup=1 drop=0 speed=7.24x    frame= 1164 fps=177 q=32.0 size=    2161kB time=00:00:48.70 bitrate= 363.4kbits/s dup=1 drop=0 speed=7.43x    frame= 1257 fps=178 q=32.0 size=    2354kB time=00:00:52.59 bitrate= 366.7kbits/s dup=1 drop=0 speed=7.45x    frame= 1320 fps=174 q=32.0 size=    2508kB time=00:00:55.23 bitrate= 372.0kbits/s dup=1 drop=0 speed=7.27x    frame= 1377 fps=170 q=32.0 size=    2691kB time=00:00:57.58 bitrate= 382.9kbits/s dup=1 drop=0 speed= 7.1x    frame= 1464 fps=169 q=32.0 size=    2821kB time=00:01:01.20 bitrate= 377.5kbits/s dup=1 drop=0 speed=7.06x    frame= 1545 fps=168 q=32.0 size=    3002kB time=00:01:04.62 bitrate= 380.6kbits/s dup=1 drop=0 speed=7.04x    frame= 1634 fps=169 q=32.0 size=    3181kB time=00:01:08.29 bitrate= 381.6kbits/s dup=1 drop=0 speed=7.06x    frame= 1707 fps=168 q=32.0 size=    3376kB time=00:01:11.36 bitrate= 387.5kbits/s dup=1 drop=0 speed=7.01x    frame= 1768 fps=165 q=32.0 size=    3553kB time=00:01:13.88 bitrate= 393.9kbits/s dup=1 drop=0 speed=6.91x    frame= 1832 fps=164 q=32.0 size=    3708kB time=00:01:16.56 bitrate= 396.7kbits/s dup=1 drop=0 speed=6.84x    frame= 1893 fps=161 q=32.0 size=    3848kB time=00:01:19.08 bitrate= 398.6kbits/s dup=1 drop=0 speed=6.75x    frame= 1961 fps=160 q=32.0 size=    4019kB time=00:01:21.94 bitrate= 401.8kbits/s dup=1 drop=0 speed= 6.7x    frame= 2020 fps=158 q=32.0 size=    4161kB time=00:01:24.41 bitrate= 403.8kbits/s dup=1 drop=0 speed=6.62x    frame= 2073 fps=155 q=32.0 size=    4258kB time=00:01:26.59 bitrate= 402.8kbits/s dup=1 drop=0 speed=6.49x    frame= 2156 fps=156 q=32.0 size=    4406kB time=00:01:30.05 bitrate= 400.8kbits/s dup=1 drop=0 speed=6.51x    frame= 2360 fps=165 q=32.0 size=    4544kB time=00:01:38.58 bitrate= 377.6kbits/s dup=1 drop=0 speed=6.87x    frame= 2512 fps=169 q=32.0 size=    4689kB time=00:01:44.94 bitrate= 366.0kbits/s dup=1 drop=0 speed=7.07x    frame= 2593 fps=169 q=32.0 size=    4816kB time=00:01:48.27 bitrate= 364.4kbits/s dup=1 drop=0 speed=7.06x    frame= 2702 fps=171 q=32.0 size=    4965kB time=00:01:52.83 bitrate= 360.5kbits/s dup=1 drop=0 speed=7.12x    frame= 2813 fps=172 q=32.0 size=    5101kB time=00:01:57.48 bitrate= 355.7kbits/s dup=1 drop=0 speed=7.19x    frame= 2932 fps=174 q=32.0 size=    5237kB time=00:02:02.43 bitrate= 350.4kbits/s dup=1 drop=0 speed=7.26x    frame= 3027 fps=174 q=32.0 size=    5310kB time=00:02:06.40 bitrate= 344.2kbits/s dup=1 drop=0 speed=7.28x    frame= 3133 fps=175 q=32.0 size=    5413kB time=00:02:10.84 bitrate= 338.9kbits/s dup=1 drop=0 speed=7.32x    frame= 3232 fps=176 q=32.0 size=    5479kB time=00:02:14.93 bitrate= 332.6kbits/s dup=1 drop=0 speed=7.34x    frame= 3317 fps=176 q=32.0 size=    5574kB time=00:02:18.47 bitrate= 329.7kbits/s dup=1 drop=0 speed=7.33x    frame= 3389 fps=175 q=32.0 size=    5666kB time=00:02:21.50 bitrate= 328.0kbits/s dup=1 drop=0 speed= 7.3x    frame= 3476 fps=175 q=32.0 size=    5763kB time=00:02:25.13 bitrate= 325.3kbits/s dup=1 drop=0 speed= 7.3x    frame= 3568 fps=175 q=32.0 size=    5827kB time=00:02:28.97 bitrate= 320.4kbits/s dup=1 drop=0 speed=7.31x    frame= 3668 fps=176 q=32.0 size=    5904kB time=00:02:33.15 bitrate= 315.8kbits/s dup=1 drop=0 speed=7.33x    frame= 3755 fps=175 q=32.0 size=    5994kB time=00:02:36.78 bitrate= 313.2kbits/s dup=1 drop=0 speed=7.33x    frame= 3852 fps=176 q=32.0 size=    6078kB time=00:02:40.83 bitrate= 309.6kbits/s dup=1 drop=0 speed=7.34x    frame= 3942 fps=176 q=32.0 size=    6175kB time=00:02:44.54 bitrate= 307.4kbits/s dup=1 drop=0 speed=7.34x    frame= 4005 fps=175 q=32.0 size=    6272kB time=00:02:47.19 bitrate= 307.3kbits/s dup=1 drop=0 speed=7.29x    frame= 4097 fps=175 q=32.0 size=    6333kB time=00:02:51.03 bitrate= 303.3kbits/s dup=1 drop=0 speed= 7.3x    frame= 4153 fps=174 q=32.0 size=    6423kB time=00:02:53.37 bitrate= 303.5kbits/s dup=1 drop=0 speed=7.25x    frame= 4211 fps=172 q=32.0 size=    6531kB time=00:02:55.81 bitrate= 304.3kbits/s dup=1 drop=0 speed= 7.2x    frame= 4270 fps=171 q=32.0 size=    6663kB time=00:02:58.24 bitrate= 306.2kbits/s dup=1 drop=0 speed=7.15x    frame= 4318 fps=170 q=32.0 size=    6764kB time=00:03:00.24 bitrate= 307.4kbits/s dup=1 drop=0 speed=7.09x    frame= 4376 fps=169 q=32.0 size=    6868kB time=00:03:02.68 bitrate= 308.0kbits/s dup=1 drop=0 speed=7.04x    frame= 4459 fps=169 q=32.0 size=    6949kB time=00:03:06.13 bitrate= 305.8kbits/s dup=1 drop=0 speed=7.04x    frame= 4523 fps=168 q=32.0 size=    7058kB time=00:03:08.78 bitrate= 306.3kbits/s dup=1 drop=0 speed=7.01x    frame= 4592 fps=167 q=32.0 size=    7175kB time=00:03:11.68 bitrate= 306.6kbits/s dup=1 drop=0 speed=6.98x    frame= 4673 fps=167 q=32.0 size=    7307kB time=00:03:15.05 bitrate= 306.9kbits/s dup=1 drop=0 speed=6.97x    frame= 4745 fps=167 q=32.0 size=    7393kB time=00:03:18.08 bitrate= 305.8kbits/s dup=1 drop=0 speed=6.95x    frame= 4803 fps=166 q=32.0 size=    7509kB time=00:03:20.51 bitrate= 306.8kbits/s dup=1 drop=0 speed=6.92x    frame= 4866 fps=165 q=32.0 size=    7594kB time=00:03:23.11 bitrate= 306.3kbits/s dup=1 drop=0 speed=6.89x    frame= 4926 fps=164 q=32.0 size=    7686kB time=00:03:25.59 bitrate= 306.2kbits/s dup=1 drop=0 speed=6.85x    frame= 5002 fps=164 q=32.0 size=    7785kB time=00:03:28.79 bitrate= 305.4kbits/s dup=1 drop=0 speed=6.84x    frame= 5071 fps=164 q=32.0 size=    7859kB time=00:03:31.65 bitrate= 304.2kbits/s dup=1 drop=0 speed=6.82x    frame= 5150 fps=163 q=32.0 size=    7980kB time=00:03:34.97 bitrate= 304.1kbits/s dup=1 drop=0 speed=6.82x    frame= 5249 fps=164 q=32.0 size=    8048kB time=00:03:39.07 bitrate= 301.0kbits/s dup=1 drop=0 speed=6.84x    frame= 5343 fps=164 q=32.0 size=    8147kB time=00:03:43.00 bitrate= 299.3kbits/s dup=1 drop=0 speed=6.85x    frame= 5442 fps=165 q=32.0 size=    8215kB time=00:03:47.13 bitrate= 296.3kbits/s dup=1 drop=0 speed=6.87x    frame= 5539 fps=165 q=32.0 size=    8301kB time=00:03:51.19 bitrate= 294.1kbits/s dup=1 drop=0 speed=6.89x    frame= 5626 fps=165 q=32.0 size=    8426kB time=00:03:54.81 bitrate= 294.0kbits/s dup=1 drop=0 speed=6.89x    frame= 5709 fps=165 q=32.0 size=    8526kB time=00:03:58.27 bitrate= 293.1kbits/s dup=1 drop=0 speed=6.89x    frame= 5796 fps=165 q=32.0 size=    8663kB time=00:04:01.90 bitrate= 293.4kbits/s dup=1 drop=0 speed=6.89x    frame= 5890 fps=165 q=32.0 size=    8737kB time=00:04:05.82 bitrate= 291.2kbits/s dup=1 drop=0 speed= 6.9x    frame= 5980 fps=166 q=32.0 size=    8836kB time=00:04:09.58 bitrate= 290.0kbits/s dup=1 drop=0 speed=6.91x    frame= 6071 fps=166 q=32.0 size=    8932kB time=00:04:13.37 bitrate= 288.8kbits/s dup=1 drop=0 speed=6.92x    frame= 6162 fps=166 q=32.0 size=    9029kB time=00:04:17.17 bitrate= 287.6kbits/s dup=1 drop=0 speed=6.93x    frame= 6251 fps=166 q=32.0 size=    9117kB time=00:04:20.88 bitrate= 286.3kbits/s dup=1 drop=0 speed=6.93x    frame= 6339 fps=166 q=32.0 size=    9228kB time=00:04:24.55 bitrate= 285.7kbits/s dup=1 drop=0 speed=6.93x    frame= 6412 fps=166 q=32.0 size=    9334kB time=00:04:27.58 bitrate= 285.7kbits/s dup=1 drop=0 speed=6.92x    frame= 6484 fps=166 q=32.0 size=    9436kB time=00:04:30.57 bitrate= 285.7kbits/s dup=1 drop=0 speed=6.91x    frame= 6535 fps=165 q=32.0 size=    9531kB time=00:04:32.70 bitrate= 286.3kbits/s dup=1 drop=0 speed=6.88x    frame= 6583 fps=164 q=32.0 size=    9606kB time=00:04:34.71 bitrate= 286.5kbits/s dup=1 drop=0 speed=6.84x    frame= 6657 fps=164 q=32.0 size=    9705kB time=00:04:37.82 bitrate= 286.2kbits/s dup=1 drop=0 speed=6.83x    frame= 6747 fps=164 q=32.0 size=    9807kB time=00:04:41.58 bitrate= 285.3kbits/s dup=1 drop=0 speed=6.84x    frame= 6833 fps=164 q=32.0 size=    9929kB time=00:04:45.12 bitrate= 285.3kbits/s dup=1 drop=0 speed=6.84x    frame= 6911 fps=164 q=32.0 size=   10035kB time=00:04:48.40 bitrate= 285.0kbits/s dup=1 drop=0 speed=6.83x    frame= 6991 fps=164 q=32.0 size=   10153kB time=00:04:51.73 bitrate= 285.1kbits/s dup=1 drop=0 speed=6.83x    frame= 7054 fps=163 q=32.0 size=   10260kB time=00:04:54.33 bitrate= 285.5kbits/s dup=1 drop=0 speed=6.81x    frame= 7125 fps=163 q=32.0 size=   10356kB time=00:04:57.32 bitrate= 285.3kbits/s dup=1 drop=0 speed= 6.8x    frame= 7201 fps=163 q=32.0 size=   10433kB time=00:05:00.48 bitrate= 284.4kbits/s dup=1 drop=0 speed=6.79x    frame= 7309 fps=163 q=32.0 size=   10539kB time=00:05:05.00 bitrate= 283.1kbits/s dup=1 drop=0 speed=6.82x    frame= 7403 fps=164 q=32.0 size=   10604kB time=00:05:08.93 bitrate= 281.2kbits/s dup=1 drop=0 speed=6.83x    frame= 7504 fps=164 q=32.0 size=   10695kB time=00:05:13.11 bitrate= 279.8kbits/s dup=1 drop=0 speed=6.84x    frame= 7564 fps=163 q=32.0 size=   10781kB time=00:05:15.63 bitrate= 279.8kbits/s dup=1 drop=0 speed=6.82x    frame= 7621 fps=163 q=32.0 size=   10890kB time=00:05:18.01 bitrate= 280.5kbits/s dup=1 drop=0 speed= 6.8x    frame= 7694 fps=163 q=32.0 size=   10966kB time=00:05:21.04 bitrate= 279.8kbits/s dup=1 drop=0 speed=6.79x    frame= 7741 fps=162 q=32.0 size=   11102kB time=00:05:23.01 bitrate= 281.6kbits/s dup=1 drop=0 speed=6.75x    frame= 7808 fps=162 q=32.0 size=   11211kB time=00:05:25.82 bitrate= 281.9kbits/s dup=1 drop=0 speed=6.74x    frame= 7862 fps=161 q=32.0 size=   11327kB time=00:05:28.08 bitrate= 282.8kbits/s dup=1 drop=0 speed=6.72x    frame= 7916 fps=160 q=32.0 size=   11420kB time=00:05:30.30 bitrate= 283.2kbits/s dup=1 drop=0 speed=6.69x    frame= 7968 fps=160 q=32.0 size=   11518kB time=00:05:32.48 bitrate= 283.8kbits/s dup=1 drop=0 speed=6.66x    frame= 8043 fps=160 q=32.0 size=   11597kB time=00:05:35.59 bitrate= 283.1kbits/s dup=1 drop=0 speed=6.66x    frame= 8099 fps=159 q=32.0 size=   11654kB time=00:05:37.94 bitrate= 282.5kbits/s dup=1 drop=0 speed=6.64x    frame= 8185 fps=159 q=32.0 size=   11784kB time=00:05:41.57 bitrate= 282.6kbits/s dup=1 drop=0 speed=6.65x    frame= 8270 fps=159 q=32.0 size=   11900kB time=00:05:45.11 bitrate= 282.5kbits/s dup=1 drop=0 speed=6.65x    frame= 8362 fps=160 q=32.0 size=   11974kB time=00:05:48.95 bitrate= 281.1kbits/s dup=1 drop=0 speed=6.66x    frame= 8445 fps=160 q=32.0 size=   12123kB time=00:05:52.36 bitrate= 281.8kbits/s dup=1 drop=0 speed=6.66x    frame= 8525 fps=160 q=32.0 size=   12252kB time=00:05:55.73 bitrate= 282.1kbits/s dup=1 drop=0 speed=6.66x    frame= 8618 fps=160 q=32.0 size=   12313kB time=00:05:59.57 bitrate= 280.5kbits/s dup=1 drop=0 speed=6.67x    frame= 8699 fps=160 q=32.0 size=   12440kB time=00:06:02.99 bitrate= 280.7kbits/s dup=1 drop=0 speed=6.67x    frame= 8786 fps=160 q=32.0 size=   12525kB time=00:06:06.57 bitrate= 279.9kbits/s dup=1 drop=0 speed=6.67x    frame= 8848 fps=160 q=32.0 size=   12633kB time=00:06:09.17 bitrate= 280.3kbits/s dup=1 drop=0 speed=6.66x    frame= 8897 fps=159 q=32.0 size=   12728kB time=00:06:11.22 bitrate= 280.9kbits/s dup=1 drop=0 speed=6.64x    frame= 8942 fps=158 q=32.0 size=   12828kB time=00:06:13.10 bitrate= 281.6kbits/s dup=1 drop=0 speed=6.61x    frame= 9034 fps=159 q=32.0 size=   12893kB time=00:06:16.94 bitrate= 280.2kbits/s dup=1 drop=0 speed=6.62x    frame= 9127 fps=159 q=32.0 size=   12994kB time=00:06:20.82 bitrate= 279.5kbits/s dup=1 drop=0 speed=6.63x    frame= 9217 fps=159 q=32.0 size=   13094kB time=00:06:24.57 bitrate= 278.9kbits/s dup=1 drop=0 speed=6.64x    frame= 9310 fps=159 q=32.0 size=   13156kB time=00:06:28.46 bitrate= 277.4kbits/s dup=1 drop=0 speed=6.64x    frame= 9379 fps=159 q=32.0 size=   13256kB time=00:06:31.36 bitrate= 277.5kbits/s dup=1 drop=0 speed=6.64x    frame= 9457 fps=159 q=32.0 size=   13338kB time=00:06:34.56 bitrate= 276.9kbits/s dup=1 drop=0 speed=6.63x    frame= 9533 fps=159 q=32.0 size=   13460kB time=00:06:37.76 bitrate= 277.2kbits/s dup=1 drop=0 speed=6.63x    frame= 9609 fps=159 q=32.0 size=   13576kB time=00:06:40.92 bitrate= 277.4kbits/s dup=1 drop=0 speed=6.63x    frame= 9700 fps=159 q=32.0 size=   13646kB time=00:06:44.71 bitrate= 276.2kbits/s dup=1 drop=0 speed=6.63x    frame= 9784 fps=159 q=32.0 size=   13747kB time=00:06:48.21 bitrate= 275.9kbits/s dup=1 drop=0 speed=6.63x    frame= 9860 fps=159 q=32.0 size=   13869kB time=00:06:51.41 bitrate= 276.2kbits/s dup=1 drop=0 speed=6.63x    frame= 9942 fps=159 q=32.0 size=   13942kB time=00:06:54.83 bitrate= 275.3kbits/s dup=1 drop=0 speed=6.63x    frame=10030 fps=159 q=32.0 size=   14057kB time=00:06:58.49 bitrate= 275.2kbits/s dup=1 drop=0 speed=6.64x    frame=10123 fps=159 q=32.0 size=   14154kB time=00:07:02.38 bitrate= 274.5kbits/s dup=1 drop=0 speed=6.64x    frame=10206 fps=159 q=32.0 size=   14280kB time=00:07:05.83 bitrate= 274.7kbits/s dup=1 drop=0 speed=6.64x    frame=10253 fps=159 q=32.0 size=   14373kB time=00:07:07.80 bitrate= 275.2kbits/s dup=1 drop=0 speed=6.62x    frame=10336 fps=159 q=32.0 size=   14453kB time=00:07:11.25 bitrate= 274.5kbits/s dup=1 drop=0 speed=6.63x    frame=10428 fps=159 q=32.0 size=   14532kB time=00:07:15.13 bitrate= 273.6kbits/s dup=1 drop=0 speed=6.63x    frame=10532 fps=159 q=32.0 size=   14637kB time=00:07:19.44 bitrate= 272.9kbits/s dup=1 drop=0 speed=6.65x    frame=10632 fps=160 q=32.0 size=   14728kB time=00:07:23.58 bitrate= 272.0kbits/s dup=1 drop=0 speed=6.66x    frame=10709 fps=160 q=32.0 size=   14809kB time=00:07:26.78 bitrate= 271.5kbits/s dup=1 drop=0 speed=6.66x    frame=10806 fps=160 q=32.0 size=   14909kB time=00:07:30.88 bitrate= 270.9kbits/s dup=1 drop=0 speed=6.67x    frame=10906 fps=160 q=32.0 size=   15007kB time=00:07:35.02 bitrate= 270.2kbits/s dup=1 drop=0 speed=6.68x    frame=10984 fps=160 q=32.0 size=   15080kB time=00:07:38.26 bitrate= 269.6kbits/s dup=1 drop=0 speed=6.68x    frame=11044 fps=160 q=32.0 size=   15140kB time=00:07:40.73 bitrate= 269.2kbits/s dup=1 drop=0 speed=6.67x    frame=11126 fps=160 q=32.0 size=   15254kB time=00:07:44.19 bitrate= 269.2kbits/s dup=1 drop=0 speed=6.67x    frame=11214 fps=160 q=32.0 size=   15365kB time=00:07:47.86 bitrate= 269.0kbits/s dup=1 drop=0 speed=6.67x    frame=11295 fps=160 q=32.0 size=   15436kB time=00:07:51.27 bitrate= 268.3kbits/s dup=1 drop=0 speed=6.67x    frame=11328 fps=159 q=32.0 size=   15541kB time=00:07:52.64 bitrate= 269.4kbits/s dup=1 drop=0 speed=6.64x    frame=11351 fps=158 q=32.0 size=   15634kB time=00:07:53.58 bitrate= 270.4kbits/s dup=1 drop=0 speed=6.61x    frame=11380 fps=158 q=32.0 size=   15742kB time=00:07:54.77 bitrate= 271.6kbits/s dup=1 drop=0 speed=6.58x    frame=11465 fps=158 q=32.0 size=   15833kB time=00:07:58.36 bitrate= 271.1kbits/s dup=1 drop=0 speed=6.59x    frame=11573 fps=158 q=32.0 size=   15924kB time=00:08:02.84 bitrate= 270.2kbits/s dup=1 drop=0 speed= 6.6x    frame=11660 fps=158 q=32.0 size=   16017kB time=00:08:06.51 bitrate= 269.7kbits/s dup=1 drop=0 speed=6.61x    frame=11744 fps=158 q=32.0 size=   16129kB time=00:08:09.96 bitrate= 269.7kbits/s dup=1 drop=0 speed=6.61x    frame=11829 fps=158 q=32.0 size=   16204kB time=00:08:13.55 bitrate= 268.9kbits/s dup=1 drop=0 speed=6.61x    frame=11881 fps=158 q=32.0 size=   16276kB time=00:08:15.68 bitrate= 269.0kbits/s dup=1 drop=0 speed=6.59x    frame=11926 fps=158 q=32.0 size=   16334kB time=00:08:17.56 bitrate= 268.9kbits/s dup=1 drop=0 speed=6.57x    frame=12014 fps=158 q=32.0 size=   16433kB time=00:08:21.23 bitrate= 268.6kbits/s dup=1 drop=0 speed=6.58x    frame=12103 fps=158 q=32.0 size=   16522kB time=00:08:24.94 bitrate= 268.0kbits/s dup=1 drop=0 speed=6.58x    frame=12201 fps=158 q=32.0 size=   16601kB time=00:08:29.08 bitrate= 267.1kbits/s dup=1 drop=0 speed=6.59x    frame=12242 fps=158 q=32.0 size=   16704kB time=00:08:30.74 bitrate= 267.9kbits/s dup=1 drop=0 speed=6.57x    frame=12326 fps=158 q=32.0 size=   16804kB time=00:08:34.24 bitrate= 267.7kbits/s dup=1 drop=0 speed=6.58x    frame=12422 fps=158 q=32.0 size=   16870kB time=00:08:38.25 bitrate= 266.7kbits/s dup=1 drop=0 speed=6.58x    frame=12514 fps=158 q=32.0 size=   16989kB time=00:08:42.09 bitrate= 266.6kbits/s dup=1 drop=0 speed=6.59x    frame=12605 fps=158 q=32.0 size=   17087kB time=00:08:45.89 bitrate= 266.2kbits/s dup=1 drop=0 speed=6.59x    frame=12655 fps=158 q=32.0 size=   17168kB time=00:08:47.98 bitrate= 266.4kbits/s dup=1 drop=0 speed=6.58x    frame=12748 fps=158 q=32.0 size=   17256kB time=00:08:51.86 bitrate= 265.8kbits/s dup=1 drop=0 speed=6.59x    frame=12824 fps=158 q=32.0 size=   17377kB time=00:08:55.02 bitrate= 266.1kbits/s dup=1 drop=0 speed=6.58x    frame=12896 fps=158 q=32.0 size=   17479kB time=00:08:58.05 bitrate= 266.1kbits/s dup=1 drop=0 speed=6.58x    frame=12999 fps=158 q=32.0 size=   17564kB time=00:09:02.31 bitrate= 265.3kbits/s dup=1 drop=0 speed=6.59x    frame=13084 fps=158 q=32.0 size=   17661kB time=00:09:05.85 bitrate= 265.0kbits/s dup=1 drop=0 speed=6.59x    frame=13150 fps=158 q=32.0 size=   17729kB time=00:09:08.59 bitrate= 264.7kbits/s dup=1 drop=0 speed=6.59x    frame=13211 fps=158 q=32.0 size=   17836kB time=00:09:11.15 bitrate= 265.1kbits/s dup=1 drop=0 speed=6.58x    frame=13300 fps=158 q=32.0 size=   17950kB time=00:09:14.86 bitrate= 265.0kbits/s dup=1 drop=0 speed=6.58x    frame=13370 fps=158 q=32.0 size=   18010kB time=00:09:17.80 bitrate= 264.5kbits/s dup=1 drop=0 speed=6.58x    frame=13452 fps=158 q=32.0 size=   18157kB time=00:09:21.21 bitrate= 265.0kbits/s dup=1 drop=0 speed=6.58x    frame=13528 fps=158 q=32.0 size=   18279kB time=00:09:24.37 bitrate= 265.3kbits/s dup=1 drop=0 speed=6.58x    frame=13619 fps=158 q=32.0 size=   18392kB time=00:09:28.17 bitrate= 265.2kbits/s dup=1 drop=0 speed=6.58x    frame=13718 fps=158 q=32.0 size=   18462kB time=00:09:32.31 bitrate= 264.3kbits/s dup=1 drop=0 speed=6.59x    frame=13793 fps=158 q=32.0 size=   18554kB time=00:09:35.42 bitrate= 264.1kbits/s dup=1 drop=0 speed=6.59x    frame=13875 fps=158 q=32.0 size=   18652kB time=00:09:38.84 bitrate= 264.0kbits/s dup=1 drop=0 speed=6.59x    frame=13971 fps=158 q=32.0 size=   18739kB time=00:09:42.89 bitrate= 263.4kbits/s dup=1 drop=0 speed= 6.6x    frame=14063 fps=158 q=32.0 size=   18836kB time=00:09:46.69 bitrate= 263.0kbits/s dup=1 drop=0 speed= 6.6x    frame=14131 fps=158 q=32.0 size=   18906kB time=00:09:49.55 bitrate= 262.7kbits/s dup=1 drop=0 speed= 6.6x    frame=14178 fps=158 q=32.0 size=   19012kB time=00:09:51.51 bitrate= 263.3kbits/s dup=1 drop=0 speed=6.58x    frame=14255 fps=158 q=32.0 size=   19100kB time=00:09:54.71 bitrate= 263.1kbits/s dup=1 drop=0 speed=6.58x    frame=14360 fps=158 q=32.0 size=   19203kB time=00:09:59.06 bitrate= 262.6kbits/s dup=1 drop=0 speed=6.59x    frame=14476 fps=158 q=32.0 size=   19273kB time=00:10:03.92 bitrate= 261.4kbits/s dup=1 drop=0 speed=6.61x    frame=14558 fps=158 q=32.0 size=   19391kB time=00:10:07.34 bitrate= 261.6kbits/s dup=1 drop=0 speed=6.61x    frame=14626 fps=158 q=32.0 size=   19453kB time=00:10:10.15 bitrate= 261.2kbits/s dup=1 drop=0 speed= 6.6x    frame=14684 fps=158 q=32.0 size=   19567kB time=00:10:12.59 bitrate= 261.7kbits/s dup=1 drop=0 speed=6.59x    frame=14764 fps=158 q=32.0 size=   19649kB time=00:10:15.91 bitrate= 261.3kbits/s dup=1 drop=0 speed=6.59x    frame=14844 fps=158 q=32.0 size=   19790kB time=00:10:19.28 bitrate= 261.8kbits/s dup=1 drop=0 speed=6.59x    frame=14911 fps=158 q=32.0 size=   19886kB time=00:10:22.06 bitrate= 261.9kbits/s dup=1 drop=0 speed=6.59x    frame=14947 fps=157 q=32.0 size=   19983kB time=00:10:23.55 bitrate= 262.5kbits/s dup=1 drop=0 speed=6.57x    frame=14983 fps=157 q=32.0 size=   20080kB time=00:10:25.09 bitrate= 263.1kbits/s dup=1 drop=0 speed=6.54x    frame=15031 fps=157 q=32.0 size=   20161kB time=00:10:27.05 bitrate= 263.4kbits/s dup=1 drop=0 speed=6.53x    frame=15072 fps=156 q=32.0 size=   20278kB time=00:10:28.80 bitrate= 264.2kbits/s dup=1 drop=0 speed=6.51x    frame=15106 fps=156 q=32.0 size=   20374kB time=00:10:30.21 bitrate= 264.8kbits/s dup=1 drop=0 speed= 6.5x    frame=15144 fps=155 q=32.0 size=   20464kB time=00:10:31.79 bitrate= 265.3kbits/s dup=1 drop=0 speed=6.48x    frame=15203 fps=155 q=32.0 size=   20577kB time=00:10:34.26 bitrate= 265.8kbits/s dup=1 drop=0 speed=6.47x    frame=15277 fps=155 q=32.0 size=   20672kB time=00:10:37.33 bitrate= 265.7kbits/s dup=1 drop=0 speed=6.47x    frame=15351 fps=155 q=32.0 size=   20753kB time=00:10:40.40 bitrate= 265.5kbits/s dup=1 drop=0 speed=6.47x    frame=15441 fps=155 q=32.0 size=   20849kB time=00:10:44.16 bitrate= 265.1kbits/s dup=1 drop=0 speed=6.47x    frame=15538 fps=155 q=32.0 size=   20941kB time=00:10:48.21 bitrate= 264.6kbits/s dup=1 drop=0 speed=6.48x    frame=15642 fps=155 q=32.0 size=   21043kB time=00:10:52.56 bitrate= 264.2kbits/s dup=1 drop=0 speed=6.49x    frame=15724 fps=156 q=32.0 size=   21111kB time=00:10:55.98 bitrate= 263.6kbits/s dup=1 drop=0 speed=6.49x    frame=15799 fps=155 q=32.0 size=   21200kB time=00:10:59.09 bitrate= 263.5kbits/s dup=1 drop=0 speed=6.49x    frame=15891 fps=156 q=32.0 size=   21288kB time=00:11:02.93 bitrate= 263.1kbits/s dup=1 drop=0 speed=6.49x    frame=15983 fps=156 q=32.0 size=   21377kB time=00:11:06.77 bitrate= 262.6kbits/s dup=1 drop=0 speed= 6.5x    frame=16029 fps=155 q=32.0 size=   21411kB time=00:11:08.69 bitrate= 262.3kbits/s dup=1 drop=0 speed=6.48x    frame=16095 fps=155 q=32.0 size=   21512kB time=00:11:11.42 bitrate= 262.5kbits/s dup=1 drop=0 speed=6.48x    frame=16139 fps=155 q=32.0 size=   21661kB time=00:11:13.30 bitrate= 263.5kbits/s dup=1 drop=0 speed=6.46x    frame=16190 fps=155 q=32.0 size=   21747kB time=00:11:15.39 bitrate= 263.8kbits/s dup=1 drop=0 speed=6.45x    frame=16238 fps=154 q=32.0 size=   21858kB time=00:11:17.44 bitrate= 264.3kbits/s dup=1 drop=0 speed=6.44x    frame=16286 fps=154 q=32.0 size=   21946kB time=00:11:19.40 bitrate= 264.6kbits/s dup=1 drop=0 speed=6.43x    frame=16339 fps=154 q=32.0 size=   22015kB time=00:11:21.62 bitrate= 264.6kbits/s dup=1 drop=0 speed=6.42x    frame=16394 fps=154 q=32.0 size=   22104kB time=00:11:23.92 bitrate= 264.8kbits/s dup=1 drop=0 speed=6.41x    frame=16449 fps=153 q=32.0 size=   22185kB time=00:11:26.23 bitrate= 264.8kbits/s dup=1 drop=0 speed= 6.4x    frame=16503 fps=153 q=32.0 size=   22299kB time=00:11:28.45 bitrate= 265.3kbits/s dup=1 drop=0 speed=6.39x    frame=16556 fps=153 q=32.0 size=   22388kB time=00:11:30.67 bitrate= 265.5kbits/s dup=1 drop=0 speed=6.38x    frame=16624 fps=153 q=32.0 size=   22476kB time=00:11:33.52 bitrate= 265.5kbits/s dup=1 drop=0 speed=6.38x    frame=16727 fps=153 q=32.0 size=   22566kB time=00:11:37.83 bitrate= 264.9kbits/s dup=1 drop=0 speed=6.39x    frame=16824 fps=153 q=32.0 size=   22686kB time=00:11:41.84 bitrate= 264.8kbits/s dup=1 drop=0 speed=6.39x    frame=16927 fps=153 q=32.0 size=   22783kB time=00:11:46.15 bitrate= 264.3kbits/s dup=1 drop=0 speed= 6.4x    frame=17032 fps=154 q=32.0 size=   22856kB time=00:11:50.55 bitrate= 263.5kbits/s dup=1 drop=0 speed=6.41x    frame=17130 fps=154 q=32.0 size=   22937kB time=00:11:54.60 bitrate= 262.9kbits/s dup=1 drop=0 speed=6.42x    frame=17183 fps=154 q=32.0 size=   23042kB time=00:11:56.82 bitrate= 263.3kbits/s dup=1 drop=0 speed=6.41x    frame=17282 fps=154 q=32.0 size=   23135kB time=00:12:00.96 bitrate= 262.9kbits/s dup=1 drop=0 speed=6.42x    frame=17363 fps=154 q=32.0 size=   23222kB time=00:12:04.33 bitrate= 262.6kbits/s dup=1 drop=0 speed=6.42x    frame=17415 fps=154 q=32.0 size=   23325kB time=00:12:06.51 bitrate= 263.0kbits/s dup=1 drop=0 speed=6.41x    frame=17499 fps=154 q=32.0 size=   23459kB time=00:12:10.05 bitrate= 263.2kbits/s dup=1 drop=0 speed=6.41x    frame=17584 fps=154 q=32.0 size=   23523kB time=00:12:13.55 bitrate= 262.7kbits/s dup=1 drop=0 speed=6.41x    frame=17647 fps=154 q=32.0 size=   23643kB time=00:12:16.19 bitrate= 263.1kbits/s dup=1 drop=0 speed=6.41x    frame=17693 fps=153 q=32.0 size=   23750kB time=00:12:18.07 bitrate= 263.6kbits/s dup=1 drop=0 speed=6.39x    frame=17769 fps=153 q=32.0 size=   23827kB time=00:12:21.27 bitrate= 263.3kbits/s dup=1 drop=0 speed=6.39x    frame=17825 fps=153 q=32.0 size=   23914kB time=00:12:23.61 bitrate= 263.4kbits/s dup=1 drop=0 speed=6.39x    frame=17904 fps=153 q=32.0 size=   24007kB time=00:12:26.90 bitrate= 263.3kbits/s dup=1 drop=0 speed=6.39x    frame=17975 fps=153 q=32.0 size=   24110kB time=00:12:29.84 bitrate= 263.4kbits/s dup=1 drop=0 speed=6.39x    frame=18065 fps=153 q=32.0 size=   24192kB time=00:12:33.60 bitrate= 263.0kbits/s dup=1 drop=0 speed=6.39x    frame=18142 fps=153 q=32.0 size=   24311kB time=00:12:36.84 bitrate= 263.1kbits/s dup=1 drop=0 speed=6.39x    frame=18235 fps=153 q=32.0 size=   24410kB time=00:12:40.68 bitrate= 262.9kbits/s dup=1 drop=0 speed=6.39x    frame=18317 fps=153 q=32.0 size=   24531kB time=00:12:44.14 bitrate= 263.0kbits/s dup=1 drop=0 speed= 6.4x    frame=18404 fps=153 q=32.0 size=   24595kB time=00:12:47.76 bitrate= 262.4kbits/s dup=1 drop=0 speed= 6.4x    frame=18484 fps=153 q=32.0 size=   24689kB time=00:12:51.13 bitrate= 262.3kbits/s dup=1 drop=0 speed= 6.4x    frame=18583 fps=154 q=32.0 size=   24788kB time=00:12:55.23 bitrate= 261.9kbits/s dup=1 drop=0 speed=6.41x    frame=18687 fps=154 q=32.0 size=   24881kB time=00:12:59.58 bitrate= 261.4kbits/s dup=1 drop=0 speed=6.42x    frame=18786 fps=154 q=32.0 size=   24949kB time=00:13:03.68 bitrate= 260.8kbits/s dup=1 drop=0 speed=6.42x    frame=18884 fps=154 q=32.0 size=   25035kB time=00:13:07.77 bitrate= 260.3kbits/s dup=1 drop=0 speed=6.43x    frame=18967 fps=154 q=32.0 size=   25130kB time=00:13:11.23 bitrate= 260.2kbits/s dup=1 drop=0 speed=6.43x    frame=19027 fps=154 q=32.0 size=   25235kB time=00:13:13.75 bitrate= 260.4kbits/s dup=1 drop=0 speed=6.43x    frame=19115 fps=154 q=32.0 size=   25318kB time=00:13:17.42 bitrate= 260.1kbits/s dup=1 drop=0 speed=6.43x    frame=19153 fps=154 q=32.0 size=   25429kB time=00:13:19.00 bitrate= 260.7kbits/s dup=1 drop=0 speed=6.42x    frame=19245 fps=154 q=32.0 size=   25533kB time=00:13:22.84 bitrate= 260.5kbits/s dup=1 drop=0 speed=6.42x    frame=19353 fps=154 q=32.0 size=   25641kB time=00:13:27.32 bitrate= 260.2kbits/s dup=1 drop=0 speed=6.43x    frame=19470 fps=154 q=32.0 size=   25735kB time=00:13:32.22 bitrate= 259.6kbits/s dup=1 drop=0 speed=6.44x    frame=19556 fps=154 q=32.0 size=   25807kB time=00:13:35.81 bitrate= 259.1kbits/s dup=1 drop=0 speed=6.44x    frame=19633 fps=154 q=32.0 size=   25924kB time=00:13:39.01 bitrate= 259.3kbits/s dup=1 drop=0 speed=6.44x    frame=19678 fps=154 q=32.0 size=   26030kB time=00:13:40.88 bitrate= 259.8kbits/s dup=1 drop=0 speed=6.43x    frame=19760 fps=154 q=32.0 size=   26104kB time=00:13:44.34 bitrate= 259.4kbits/s dup=1 drop=0 speed=6.43x    frame=19847 fps=154 q=32.0 size=   26196kB time=00:13:47.92 bitrate= 259.2kbits/s dup=1 drop=0 speed=6.44x    frame=19937 fps=154 q=32.0 size=   26263kB time=00:13:51.68 bitrate= 258.7kbits/s dup=1 drop=0 speed=6.44x    frame=20032 fps=154 q=32.0 size=   26352kB time=00:13:55.65 bitrate= 258.3kbits/s dup=1 drop=0 speed=6.44x    frame=20099 fps=154 q=32.0 size=   26459kB time=00:13:58.46 bitrate= 258.5kbits/s dup=1 drop=0 speed=6.44x    frame=20188 fps=155 q=32.0 size=   26554kB time=00:14:02.13 bitrate= 258.3kbits/s dup=1 drop=0 speed=6.45x    frame=20280 fps=155 q=32.0 size=   26625kB time=00:14:05.97 bitrate= 257.8kbits/s dup=1 drop=0 speed=6.45x    frame=20377 fps=155 q=32.0 size=   26683kB time=00:14:10.07 bitrate= 257.1kbits/s dup=1 drop=0 speed=6.46x    frame=20473 fps=155 q=32.0 size=   26794kB time=00:14:14.08 bitrate= 257.0kbits/s dup=1 drop=0 speed=6.46x    frame=20568 fps=155 q=32.0 size=   26860kB time=00:14:18.00 bitrate= 256.5kbits/s dup=1 drop=0 speed=6.47x    frame=20661 fps=155 q=32.0 size=   26962kB time=00:14:21.89 bitrate= 256.3kbits/s dup=1 drop=0 speed=6.47x    frame=20735 fps=155 q=32.0 size=   27061kB time=00:14:24.96 bitrate= 256.3kbits/s dup=1 drop=0 speed=6.47x    frame=20793 fps=155 q=32.0 size=   27175kB time=00:14:27.39 bitrate= 256.7kbits/s dup=1 drop=0 speed=6.46x    frame=20872 fps=155 q=32.0 size=   27272kB time=00:14:30.68 bitrate= 256.6kbits/s dup=1 drop=0 speed=6.46x    frame=20961 fps=155 q=32.0 size=   27352kB time=00:14:34.43 bitrate= 256.2kbits/s dup=1 drop=0 speed=6.47x    frame=21069 fps=155 q=32.0 size=   27431kB time=00:14:38.91 bitrate= 255.7kbits/s dup=1 drop=0 speed=6.47x    frame=21161 fps=155 q=32.0 size=   27526kB time=00:14:42.75 bitrate= 255.4kbits/s dup=1 drop=0 speed=6.48x    frame=21243 fps=155 q=32.0 size=   27586kB time=00:14:46.16 bitrate= 255.0kbits/s dup=1 drop=0 speed=6.48x    frame=21277 fps=155 q=32.0 size=   27688kB time=00:14:47.57 bitrate= 255.6kbits/s dup=1 drop=0 speed=6.47x    frame=21406 fps=155 q=32.0 size=   27798kB time=00:14:52.95 bitrate= 255.0kbits/s dup=1 drop=0 speed=6.48x    frame=21507 fps=156 q=32.0 size=   27884kB time=00:14:57.17 bitrate= 254.6kbits/s dup=1 drop=0 speed=6.49x    frame=21553 fps=155 q=32.0 size=   27974kB time=00:14:59.09 bitrate= 254.9kbits/s dup=1 drop=0 speed=6.48x    frame=21660 fps=156 q=32.0 size=   28053kB time=00:15:03.53 bitrate= 254.3kbits/s dup=1 drop=0 speed=6.49x    frame=21742 fps=156 q=32.0 size=   28141kB time=00:15:06.99 bitrate= 254.2kbits/s dup=1 drop=0 speed=6.49x    frame=21847 fps=156 q=32.0 size=   28240kB time=00:15:11.34 bitrate= 253.8kbits/s dup=1 drop=0 speed= 6.5x    frame=21903 fps=156 q=32.0 size=   28321kB time=00:15:13.68 bitrate= 253.9kbits/s dup=1 drop=0 speed=6.49x    frame=21957 fps=155 q=32.0 size=   28404kB time=00:15:15.95 bitrate= 254.0kbits/s dup=1 drop=0 speed=6.48x    frame=22046 fps=155 q=32.0 size=   28515kB time=00:15:19.66 bitrate= 254.0kbits/s dup=1 drop=0 speed=6.48x    frame=22141 fps=156 q=32.0 size=   28609kB time=00:15:23.63 bitrate= 253.7kbits/s dup=1 drop=0 speed=6.49x    frame=22211 fps=156 q=32.0 size=   28673kB time=00:15:26.53 bitrate= 253.5kbits/s dup=1 drop=0 speed=6.49x    frame=22263 fps=155 q=32.0 size=   28758kB time=00:15:28.70 bitrate= 253.7kbits/s dup=1 drop=0 speed=6.48x    frame=22334 fps=155 q=32.0 size=   28830kB time=00:15:31.69 bitrate= 253.5kbits/s dup=1 drop=0 speed=6.48x    frame=22370 fps=155 q=32.0 size=   28895kB time=00:15:33.18 bitrate= 253.7kbits/s dup=1 drop=0 speed=6.46x    frame=22426 fps=155 q=32.0 size=   28981kB time=00:15:35.53 bitrate= 253.8kbits/s dup=1 drop=0 speed=6.46x    frame=22482 fps=155 q=32.0 size=   29057kB time=00:15:37.83 bitrate= 253.8kbits/s dup=1 drop=0 speed=6.45x    frame=22583 fps=155 q=32.0 size=   29146kB time=00:15:42.06 bitrate= 253.4kbits/s dup=1 drop=0 speed=6.46x    frame=22681 fps=155 q=32.0 size=   29232kB time=00:15:46.15 bitrate= 253.1kbits/s dup=1 drop=0 speed=6.46x    frame=22758 fps=155 q=32.0 size=   29328kB time=00:15:49.35 bitrate= 253.1kbits/s dup=1 drop=0 speed=6.46x    frame=22817 fps=155 q=32.0 size=   29422kB time=00:15:51.83 bitrate= 253.2kbits/s dup=1 drop=0 speed=6.46x    frame=22900 fps=155 q=32.0 size=   29533kB time=00:15:55.28 bitrate= 253.3kbits/s dup=1 drop=0 speed=6.46x    frame=22969 fps=155 q=32.0 size=   29638kB time=00:15:58.14 bitrate= 253.4kbits/s dup=1 drop=0 speed=6.46x    frame=23041 fps=155 q=32.0 size=   29746kB time=00:16:01.13 bitrate= 253.5kbits/s dup=1 drop=0 speed=6.45x    frame=23137 fps=155 q=32.0 size=   29901kB time=00:16:05.14 bitrate= 253.8kbits/s dup=1 drop=0 speed=6.46x    frame=23283 fps=155 q=32.0 size=   30057kB time=00:16:11.24 bitrate= 253.5kbits/s dup=1 drop=0 speed=6.48x    frame=23363 fps=155 q=32.0 size=   30198kB time=00:16:14.57 bitrate= 253.8kbits/s dup=1 drop=0 speed=6.48x    frame=23449 fps=155 q=32.0 size=   30349kB time=00:16:18.15 bitrate= 254.2kbits/s dup=1 drop=0 speed=6.48x    frame=23584 fps=156 q=32.0 size=   30514kB time=00:16:23.79 bitrate= 254.1kbits/s dup=1 drop=0 speed= 6.5x    frame=23737 fps=156 q=32.0 size=   30629kB time=00:16:30.19 bitrate= 253.4kbits/s dup=1 drop=0 speed=6.52x    frame=23890 fps=157 q=32.0 size=   30792kB time=00:16:36.59 bitrate= 253.1kbits/s dup=1 drop=0 speed=6.54x    frame=23998 fps=157 q=32.0 size=   30937kB time=00:16:41.07 bitrate= 253.2kbits/s dup=1 drop=0 speed=6.54x    frame=24071 fps=157 q=32.0 size=   31021kB time=00:16:44.09 bitrate= 253.1kbits/s dup=1 drop=0 speed=6.54x    frame=24190 fps=157 q=32.0 size=   31167kB time=00:16:49.09 bitrate= 253.0kbits/s dup=1 drop=0 speed=6.55x    frame=24325 fps=157 q=32.0 size=   31314kB time=00:16:54.72 bitrate= 252.8kbits/s dup=1 drop=0 speed=6.57x    frame=24458 fps=158 q=32.0 size=   31440kB time=00:17:00.27 bitrate= 252.4kbits/s dup=1 drop=0 speed=6.58x    frame=24584 fps=158 q=32.0 size=   31570kB time=00:17:05.51 bitrate= 252.2kbits/s dup=1 drop=0 speed= 6.6x    frame=24670 fps=158 q=32.0 size=   31678kB time=00:17:09.10 bitrate= 252.2kbits/s dup=1 drop=0 speed= 6.6x    frame=24762 fps=158 q=32.0 size=   31805kB time=00:17:12.94 bitrate= 252.2kbits/s dup=1 drop=0 speed= 6.6x    frame=24900 fps=159 q=32.0 size=   31950kB time=00:17:18.70 bitrate= 252.0kbits/s dup=1 drop=0 speed=6.62x    frame=25024 fps=159 q=32.0 size=   32111kB time=00:17:23.86 bitrate= 252.0kbits/s dup=1 drop=0 speed=6.63x    frame=25169 fps=159 q=32.0 size=   32228kB time=00:17:29.92 bitrate= 251.5kbits/s dup=1 drop=0 speed=6.64x    frame=25343 fps=160 q=32.0 size=   32360kB time=00:17:37.17 bitrate= 250.8kbits/s dup=1 drop=0 speed=6.67x    frame=25488 fps=160 q=32.0 size=   32496kB time=00:17:43.23 bitrate= 250.4kbits/s dup=1 drop=0 speed=6.69x    frame=25616 fps=161 q=32.0 size=   32582kB time=00:17:48.56 bitrate= 249.8kbits/s dup=1 drop=0 speed= 6.7x    frame=25746 fps=161 q=32.0 size=   32710kB time=00:17:53.98 bitrate= 249.5kbits/s dup=1 drop=0 speed=6.71x    frame=25893 fps=161 q=32.0 size=   32828kB time=00:18:00.13 bitrate= 249.0kbits/s dup=1 drop=0 speed=6.73x    frame=25963 fps=161 q=32.0 size=   32996kB time=00:18:03.03 bitrate= 249.6kbits/s dup=1 drop=0 speed=6.72x    frame=26074 fps=161 q=32.0 size=   33118kB time=00:18:07.68 bitrate= 249.4kbits/s dup=1 drop=0 speed=6.73x    frame=26173 fps=161 q=32.0 size=   33239kB time=00:18:11.82 bitrate= 249.4kbits/s dup=1 drop=0 speed=6.74x    frame=26262 fps=162 q=32.0 size=   33351kB time=00:18:15.49 bitrate= 249.4kbits/s dup=1 drop=0 speed=6.74x    frame=26347 fps=162 q=32.0 size=   33480kB time=00:18:19.07 bitrate= 249.5kbits/s dup=1 drop=0 speed=6.74x    frame=26422 fps=161 q=32.0 size=   33613kB time=00:18:22.19 bitrate= 249.8kbits/s dup=1 drop=0 speed=6.74x    frame=26520 fps=162 q=32.0 size=   33768kB time=00:18:26.24 bitrate= 250.1kbits/s dup=1 drop=0 speed=6.74x    frame=26605 fps=162 q=32.0 size=   33876kB time=00:18:29.82 bitrate= 250.1kbits/s dup=1 drop=0 speed=6.74x    frame=26697 fps=162 q=32.0 size=   33989kB time=00:18:33.66 bitrate= 250.0kbits/s dup=1 drop=0 speed=6.74x    frame=26821 fps=162 q=32.0 size=   34129kB time=00:18:38.78 bitrate= 249.9kbits/s dup=1 drop=0 speed=6.75x    frame=26982 fps=162 q=32.0 size=   34277kB time=00:18:45.52 bitrate= 249.5kbits/s dup=1 drop=0 speed=6.77x    frame=27083 fps=162 q=32.0 size=   34398kB time=00:18:49.75 bitrate= 249.4kbits/s dup=1 drop=0 speed=6.78x    frame=27161 fps=162 q=32.0 size=   34535kB time=00:18:52.99 bitrate= 249.7kbits/s dup=1 drop=0 speed=6.78x    frame=27313 fps=163 q=29.0 size=   34648kB time=00:18:59.35 bitrate= 249.1kbits/s dup=1 drop=0 speed=6.79x    frame=27469 fps=163 q=32.0 size=   34764kB time=00:19:05.83 bitrate= 248.5kbits/s dup=1 drop=0 speed=6.81x    frame=27639 fps=164 q=32.0 size=   34882kB time=00:19:12.92 bitrate= 247.9kbits/s dup=1 drop=0 speed=6.83x    frame=27710 fps=164 q=32.0 size=   34968kB time=00:19:15.90 bitrate= 247.8kbits/s dup=1 drop=0 speed=6.83x    frame=27763 fps=164 q=32.0 size=   35039kB time=00:19:18.12 bitrate= 247.8kbits/s dup=1 drop=0 speed=6.82x    frame=27855 fps=164 q=32.0 size=   35119kB time=00:19:21.92 bitrate= 247.6kbits/s dup=1 drop=0 speed=6.83x    frame=27927 fps=164 q=32.0 size=   35213kB time=00:19:24.95 bitrate= 247.6kbits/s dup=1 drop=0 speed=6.82x    frame=27998 fps=164 q=32.0 size=   35339kB time=00:19:27.89 bitrate= 247.9kbits/s dup=1 drop=0 speed=6.82x    frame=28092 fps=164 q=32.0 size=   35443kB time=00:19:31.86 bitrate= 247.8kbits/s dup=1 drop=0 speed=6.82x    frame=28171 fps=164 q=32.0 size=   35507kB time=00:19:35.15 bitrate= 247.5kbits/s dup=1 drop=0 speed=6.82x    frame=28255 fps=164 q=32.0 size=   35596kB time=00:19:38.64 bitrate= 247.4kbits/s dup=1 drop=0 speed=6.82x    frame=28348 fps=164 q=32.0 size=   35666kB time=00:19:42.48 bitrate= 247.1kbits/s dup=1 drop=0 speed=6.83x    frame=28417 fps=164 q=32.0 size=   35761kB time=00:19:45.39 bitrate= 247.1kbits/s dup=1 drop=0 speed=6.82x    frame=28508 fps=164 q=32.0 size=   35822kB time=00:19:49.18 bitrate= 246.8kbits/s dup=1 drop=0 speed=6.82x    frame=28606 fps=164 q=32.0 size=   35913kB time=00:19:53.28 bitrate= 246.5kbits/s dup=1 drop=0 speed=6.83x    frame=28675 fps=164 q=32.0 size=   35999kB time=00:19:56.14 bitrate= 246.5kbits/s dup=1 drop=0 speed=6.83x    frame=28740 fps=164 q=32.0 size=   36104kB time=00:19:58.83 bitrate= 246.7kbits/s dup=1 drop=0 speed=6.82x    frame=28795 fps=163 q=32.0 size=   36185kB time=00:20:01.13 bitrate= 246.8kbits/s dup=1 drop=0 speed=6.81x    frame=28854 fps=163 q=32.0 size=   36248kB time=00:20:03.60 bitrate= 246.7kbits/s dup=1 drop=0 speed=6.81x    frame=28896 fps=163 q=32.0 size=   36326kB time=00:20:05.35 bitrate= 246.9kbits/s dup=1 drop=0 speed= 6.8x    frame=28934 fps=163 q=32.0 size=   36421kB time=00:20:06.97 bitrate= 247.2kbits/s dup=1 drop=0 speed=6.79x    frame=28967 fps=162 q=32.0 size=   36477kB time=00:20:08.34 bitrate= 247.3kbits/s dup=1 drop=0 speed=6.77x    frame=29013 fps=162 q=32.0 size=   36563kB time=00:20:10.26 bitrate= 247.5kbits/s dup=1 drop=0 speed=6.76x    frame=29049 fps=162 q=32.0 size=   36635kB time=00:20:11.71 bitrate= 247.7kbits/s dup=1 drop=0 speed=6.75x    frame=29118 fps=162 q=32.0 size=   36723kB time=00:20:14.61 bitrate= 247.7kbits/s dup=1 drop=0 speed=6.75x    frame=29198 fps=162 q=32.0 size=   36797kB time=00:20:17.94 bitrate= 247.5kbits/s dup=1 drop=0 speed=6.75x    frame=29291 fps=162 q=32.0 size=   36884kB time=00:20:21.82 bitrate= 247.3kbits/s dup=1 drop=0 speed=6.75x    frame=29393 fps=162 q=32.0 size=   36948kB time=00:20:26.09 bitrate= 246.9kbits/s dup=1 drop=0 speed=6.76x    frame=29457 fps=162 q=32.0 size=   37027kB time=00:20:28.73 bitrate= 246.9kbits/s dup=1 drop=0 speed=6.75x    frame=29514 fps=162 q=32.0 size=   37091kB time=00:20:31.17 bitrate= 246.8kbits/s dup=1 drop=0 speed=6.75x    frame=29578 fps=162 q=32.0 size=   37164kB time=00:20:33.81 bitrate= 246.8kbits/s dup=1 drop=0 speed=6.74x    frame=29637 fps=161 q=32.0 size=   37261kB time=00:20:36.24 bitrate= 246.9kbits/s dup=1 drop=0 speed=6.74x    frame=29696 fps=161 q=32.0 size=   37343kB time=00:20:38.72 bitrate= 247.0kbits/s dup=1 drop=0 speed=6.73x    frame=29748 fps=161 q=32.0 size=   37447kB time=00:20:40.89 bitrate= 247.2kbits/s dup=1 drop=0 speed=6.72x    frame=29828 fps=161 q=32.0 size=   37564kB time=00:20:44.22 bitrate= 247.3kbits/s dup=1 drop=0 speed=6.72x    frame=29938 fps=161 q=32.0 size=   37660kB time=00:20:48.83 bitrate= 247.0kbits/s dup=1 drop=0 speed=6.73x    frame=30027 fps=161 q=32.0 size=   37746kB time=00:20:52.54 bitrate= 246.9kbits/s dup=1 drop=0 speed=6.73x    frame=30113 fps=161 q=32.0 size=   37829kB time=00:20:56.13 bitrate= 246.7kbits/s dup=1 drop=0 speed=6.73x    frame=30205 fps=161 q=32.0 size=   37883kB time=00:20:59.97 bitrate= 246.3kbits/s dup=1 drop=0 speed=6.74x    frame=30262 fps=161 q=32.0 size=   37987kB time=00:21:02.31 bitrate= 246.5kbits/s dup=1 drop=0 speed=6.73x    frame=30314 fps=161 q=32.0 size=   38073kB time=00:21:04.49 bitrate= 246.7kbits/s dup=1 drop=0 speed=6.72x    frame=30365 fps=161 q=32.0 size=   38158kB time=00:21:06.62 bitrate= 246.8kbits/s dup=1 drop=0 speed=6.72x    frame=30458 fps=161 q=32.0 size=   38269kB time=00:21:10.51 bitrate= 246.7kbits/s dup=1 drop=0 speed=6.72x    frame=30548 fps=161 q=32.0 size=   38344kB time=00:21:14.26 bitrate= 246.5kbits/s dup=1 drop=0 speed=6.72x    frame=30643 fps=161 q=32.0 size=   38413kB time=00:21:18.23 bitrate= 246.2kbits/s dup=1 drop=0 speed=6.72x    frame=30737 fps=161 q=32.0 size=   38493kB time=00:21:22.11 bitrate= 245.9kbits/s dup=1 drop=0 speed=6.73x    frame=30793 fps=161 q=32.0 size=   38568kB time=00:21:24.46 bitrate= 246.0kbits/s dup=1 drop=0 speed=6.72x    frame=30856 fps=161 q=32.0 size=   38645kB time=00:21:27.10 bitrate= 246.0kbits/s dup=1 drop=0 speed=6.71x    frame=30923 fps=161 q=32.0 size=   38737kB time=00:21:29.92 bitrate= 246.0kbits/s dup=1 drop=0 speed=6.71x    frame=30998 fps=161 q=32.0 size=   38811kB time=00:21:33.03 bitrate= 245.9kbits/s dup=1 drop=0 speed=6.71x    frame=31066 fps=161 q=32.0 size=   38901kB time=00:21:35.89 bitrate= 245.9kbits/s dup=1 drop=0 speed=6.71x    frame=31116 fps=161 q=32.0 size=   38992kB time=00:21:37.98 bitrate= 246.1kbits/s dup=1 drop=0 speed= 6.7x    frame=31166 fps=160 q=32.0 size=   39107kB time=00:21:40.03 bitrate= 246.4kbits/s dup=1 drop=0 speed=6.69x    frame=31208 fps=160 q=32.0 size=   39242kB time=00:21:41.82 bitrate= 246.9kbits/s dup=1 drop=0 speed=6.68x    frame=31245 fps=160 q=32.0 size=   39350kB time=00:21:43.36 bitrate= 247.3kbits/s dup=1 drop=0 speed=6.67x    frame=31283 fps=160 q=32.0 size=   39465kB time=00:21:44.94 bitrate= 247.8kbits/s dup=1 drop=0 speed=6.66x    frame=31327 fps=160 q=32.0 size=   39590kB time=00:21:46.73 bitrate= 248.2kbits/s dup=1 drop=0 speed=6.65x    frame=31373 fps=159 q=32.0 size=   39713kB time=00:21:48.65 bitrate= 248.6kbits/s dup=1 drop=0 speed=6.65x    frame=31419 fps=159 q=32.0 size=   39856kB time=00:21:50.57 bitrate= 249.1kbits/s dup=1 drop=0 speed=6.64x    frame=31457 fps=159 q=32.0 size=   39934kB time=00:21:52.19 bitrate= 249.3kbits/s dup=1 drop=0 speed=6.63x    frame=31486 fps=159 q=32.0 size=   40063kB time=00:21:53.39 bitrate= 249.9kbits/s dup=1 drop=0 speed=6.62x    frame=31507 fps=158 q=32.0 size=   40147kB time=00:21:54.24 bitrate= 250.2kbits/s dup=1 drop=0 speed=6.61x    frame=31537 fps=158 q=32.0 size=   40268kB time=00:21:55.52 bitrate= 250.8kbits/s dup=1 drop=0 speed= 6.6x    frame=31612 fps=158 q=32.0 size=   40380kB time=00:21:58.63 bitrate= 250.9kbits/s dup=1 drop=0 speed=6.59x    frame=31671 fps=158 q=32.0 size=   40486kB time=00:22:01.11 bitrate= 251.0kbits/s dup=1 drop=0 speed=6.59x    frame=31748 fps=158 q=32.0 size=   40609kB time=00:22:04.31 bitrate= 251.2kbits/s dup=1 drop=0 speed=6.59x    frame=31826 fps=158 q=32.0 size=   40730kB time=00:22:07.55 bitrate= 251.3kbits/s dup=1 drop=0 speed=6.59x    frame=31871 fps=158 q=32.0 size=   40908kB time=00:22:09.47 bitrate= 252.1kbits/s dup=1 drop=0 speed=6.58x    frame=31931 fps=158 q=32.0 size=   41021kB time=00:22:11.95 bitrate= 252.3kbits/s dup=1 drop=0 speed=6.57x    frame=31980 fps=157 q=32.0 size=   41125kB time=00:22:13.99 bitrate= 252.5kbits/s dup=1 drop=0 speed=6.57x    frame=32026 fps=157 q=32.0 size=   41239kB time=00:22:15.91 bitrate= 252.9kbits/s dup=1 drop=0 speed=6.56x    frame=32084 fps=157 q=32.0 size=   41384kB time=00:22:18.35 bitrate= 253.3kbits/s dup=1 drop=0 speed=6.56x    frame=32141 fps=157 q=32.0 size=   41518kB time=00:22:20.69 bitrate= 253.7kbits/s dup=1 drop=0 speed=6.55x    frame=32211 fps=157 q=32.0 size=   41650kB time=00:22:23.59 bitrate= 253.9kbits/s dup=1 drop=0 speed=6.55x    frame=32291 fps=157 q=32.0 size=   41783kB time=00:22:26.96 bitrate= 254.1kbits/s dup=1 drop=0 speed=6.55x    frame=32359 fps=157 q=32.0 size=   41969kB time=00:22:29.78 bitrate= 254.7kbits/s dup=1 drop=0 speed=6.55x    frame=32433 fps=157 q=32.0 size=   42102kB time=00:22:32.85 bitrate= 254.9kbits/s dup=1 drop=0 speed=6.54x    frame=32486 fps=157 q=32.0 size=   42261kB time=00:22:35.07 bitrate= 255.5kbits/s dup=1 drop=0 speed=6.54x    frame=32537 fps=157 q=32.0 size=   42411kB time=00:22:37.20 bitrate= 256.0kbits/s dup=1 drop=0 speed=6.53x    frame=32612 fps=157 q=32.0 size=   42534kB time=00:22:40.32 bitrate= 256.1kbits/s dup=1 drop=0 speed=6.53x    frame=32656 fps=156 q=32.0 size=   42683kB time=00:22:42.20 bitrate= 256.7kbits/s dup=1 drop=0 speed=6.52x    frame=32720 fps=156 q=32.0 size=   42846kB time=00:22:44.84 bitrate= 257.2kbits/s dup=1 drop=0 speed=6.52x    frame=32796 fps=156 q=32.0 size=   43010kB time=00:22:48.00 bitrate= 257.6kbits/s dup=1 drop=0 speed=6.52x    frame=32896 fps=156 q=32.0 size=   43158kB time=00:22:52.18 bitrate= 257.7kbits/s dup=1 drop=0 speed=6.52x    frame=32958 fps=156 q=32.0 size=   43278kB time=00:22:54.78 bitrate= 257.9kbits/s dup=1 drop=0 speed=6.52x    frame=33028 fps=156 q=32.0 size=   43400kB time=00:22:57.68 bitrate= 258.1kbits/s dup=1 drop=0 speed=6.52x    frame=33164 fps=157 q=32.0 size=   43535kB time=00:23:03.36 bitrate= 257.8kbits/s dup=1 drop=0 speed=6.53x    frame=33290 fps=157 q=32.0 size=   43731kB time=00:23:08.65 bitrate= 258.0kbits/s dup=1 drop=0 speed=6.54x    frame=33401 fps=157 q=32.0 size=   43862kB time=00:23:13.26 bitrate= 257.9kbits/s dup=1 drop=0 speed=6.55x    frame=33506 fps=157 q=32.0 size=   43948kB time=00:23:17.65 bitrate= 257.6kbits/s dup=1 drop=0 speed=6.55x    frame=33629 fps=157 q=32.0 size=   44065kB time=00:23:22.81 bitrate= 257.3kbits/s dup=1 drop=0 speed=6.56x    frame=33753 fps=157 q=32.0 size=   44174kB time=00:23:27.93 bitrate= 257.0kbits/s dup=1 drop=0 speed=6.57x    frame=33865 fps=158 q=32.0 size=   44306kB time=00:23:32.63 bitrate= 256.9kbits/s dup=1 drop=0 speed=6.57x    frame=33962 fps=158 q=32.0 size=   44391kB time=00:23:36.64 bitrate= 256.7kbits/s dup=1 drop=0 speed=6.58x    frame=34025 fps=158 q=32.0 size=   44513kB time=00:23:39.33 bitrate= 256.9kbits/s dup=1 drop=0 speed=6.57x    frame=34088 fps=157 q=32.0 size=   44611kB time=00:23:41.89 bitrate= 257.0kbits/s dup=1 drop=0 speed=6.57x    frame=34149 fps=157 q=32.0 size=   44692kB time=00:23:44.45 bitrate= 257.0kbits/s dup=1 drop=0 speed=6.57x    frame=34229 fps=157 q=32.0 size=   44773kB time=00:23:47.77 bitrate= 256.9kbits/s dup=1 drop=0 speed=6.57x    frame=34309 fps=157 q=32.0 size=   44901kB time=00:23:51.15 bitrate= 257.0kbits/s dup=1 drop=0 speed=6.57x    frame=34392 fps=157 q=32.0 size=   44998kB time=00:23:54.60 bitrate= 257.0kbits/s dup=1 drop=0 speed=6.57x    frame=34471 fps=157 q=32.0 size=   45130kB time=00:23:57.89 bitrate= 257.1kbits/s dup=1 drop=0 speed=6.57x    frame=34683 fps=158 q=32.0 size=   45267kB time=00:24:06.72 bitrate= 256.3kbits/s dup=1 drop=0 speed=6.59x    [mp4 @ 0x324ec20] Starting second pass: moving the moov atom to the beginning of the file
frame=34816 fps=158 q=-1.0 Lsize=   46188kB time=00:24:12.09 bitrate= 260.6kbits/s dup=1 drop=0 speed= 6.6x    
video:36072kB audio:9291kB subtitle:0kB other streams:0kB global headers:0kB muxing overhead: 1.819035%
[libx264 @ 0x323cc40] frame I:318   Avg QP:21.48  size: 16115
[libx264 @ 0x323cc40] frame P:11362 Avg QP:24.55  size:  2243
[libx264 @ 0x323cc40] frame B:23136 Avg QP:29.62  size:   273
[libx264 @ 0x323cc40] consecutive B-frames:  3.9%  9.7% 38.1% 48.3%
[libx264 @ 0x323cc40] mb I  I16..4: 25.4% 52.7% 21.9%
[libx264 @ 0x323cc40] mb P  I16..4:  4.4%  4.3%  0.9%  P16..4: 30.3%  4.0%  3.2%  0.1%  0.0%    skip:52.8%
[libx264 @ 0x323cc40] mb B  I16..4:  0.2%  0.2%  0.0%  B16..8:  9.9%  0.7%  0.1%  direct: 0.5%  skip:88.5%  L0:37.7% L1:60.3% BI: 1.9%
[libx264 @ 0x323cc40] 8x8 transform intra:46.5% inter:59.4%
[libx264 @ 0x323cc40] coded y,uvDC,uvAC intra: 27.6% 51.1% 8.3% inter: 1.5% 4.0% 0.0%
[libx264 @ 0x323cc40] i16 v,h,dc,p: 45% 30% 14% 11%
[libx264 @ 0x323cc40] i8 v,h,dc,ddl,ddr,vr,hd,vl,hu: 23% 18% 42%  3%  2%  3%  2%  3%  3%
[libx264 @ 0x323cc40] i4 v,h,dc,ddl,ddr,vr,hd,vl,hu: 30% 20% 18%  5%  5%  6%  6%  5%  5%
[libx264 @ 0x323cc40] i8c dc,h,v,p: 44% 26% 24%  7%
[libx264 @ 0x323cc40] Weighted P-Frames: Y:1.9% UV:1.3%
[libx264 @ 0x323cc40] ref P L0: 62.8%  9.4% 12.2%  4.0%  3.2%  2.9%  2.8%  1.8%  0.9%  0.0%
[libx264 @ 0x323cc40] ref B L0: 81.4%  8.8%  4.3%  1.7%  1.6%  1.1%  1.0%
[libx264 @ 0x323cc40] ref B L1: 93.9%  6.1%
[libx264 @ 0x323cc40] kb/s:203.49
